<?xml version="1.0" encoding="UTF-8"?>
<svg width="180px" height="180px" viewBox="0 0 180 180" version="1.1" xmlns="http://www.w3.org/2000/svg" xmlns:xlink="http://www.w3.org/1999/xlink" style="background: #EE4E4C;">
    <!-- Generator: Sketch 42 (36781) - http://www.bohemiancoding.com/sketch -->
    <title>180 - iPhone 6 Plus Copy</title>
    <desc>Created with Sketch.</desc>
    <defs></defs>
    <g id="appIcon" stroke="none" stroke-width="1" fill="none" fill-rule="evenodd">
        <g id="180---iPhone-6-Plus-Copy">
            <g id="Group" transform="translate(36.000000, 43.000000)" fill="#FFFFFF">
                <g id="Page-1">
                    <g id="Group-3">
                        <path d="M37.8767065,26.0676 L37.8767065,25.9268481 C37.8767065,20.0860361 33.7875761,14.8078406 27.3314529,14.8078406 C20.9466703,14.8078406 16.929279,20.0156602 16.929279,25.7860962 L16.929279,25.9268481 C16.929279,31.7680511 21.0184094,37.0458556 27.4745326,37.0458556 C33.8593152,37.0458556 37.8767065,31.8384271 37.8767065,26.0676 M3.98550726e-05,26.0676 L3.98550726e-05,25.9268481 C3.98550726e-05,11.6413143 11.9796775,0.240803008 27.4745326,0.240803008 C42.9697862,0.240803008 54.8063442,11.5005624 54.8063442,25.7860962 L54.8063442,25.9268481 C54.8063442,40.2127729 42.826308,51.6132842 27.3314529,51.6132842 C11.8361993,51.6132842 3.98550726e-05,40.3535248 3.98550726e-05,26.0676" id="Fill-1"></path>
                    </g>
                    <polygon id="Fill-4" points="60 1.02 76.1491608 1.02 76.1491608 19.726749 89.8831175 1.02 108.654916 1.02 91.8155875 22.725668 109 51 89.7447005 51 80.2901678 35.1493643 76.1491608 40.3613745 76.1491608 51 60 51"></polygon>
                </g>
            </g>
            <path d="M135,104 C135,127.748392 115.748392,147 92,147 C68.2516078,147 49,127.748392 49,104" id="Page-1" stroke="#FFFFFF" stroke-width="19"></path>
        </g>
    </g>
</svg>