<svg width="1024" height="1024" viewBox="0 0 1024 1024" fill="none" xmlns="http://www.w3.org/2000/svg">
<mask id="mask0" mask-type="alpha" maskUnits="userSpaceOnUse" x="0" y="0" width="1024" height="1024">
<rect width="1024" height="1024" rx="193" fill="#C4C4C4"/>
</mask>
<g mask="url(#mask0)">
<rect width="1024" height="1024" fill="url(#paint0_radial)"/>
<g opacity="0.4" filter="url(#filter0_f)">
<path d="M323.679 229.7C225.989 229.7 148.236 309.447 148.236 405.143C148.236 502.833 227.983 580.586 323.679 580.586C419.375 580.586 499.122 500.839 499.122 405.143C501.116 307.453 421.369 229.7 323.679 229.7ZM323.679 472.928C285.799 472.928 255.894 443.023 255.894 405.143C255.894 367.263 285.799 337.358 323.679 337.358C361.559 337.358 391.464 367.263 391.464 405.143C391.464 443.023 361.559 472.928 323.679 472.928Z" fill="#FFB3B7"/>
<path d="M863.965 524.763L772.256 415.111C768.268 409.13 768.268 403.149 772.256 397.168L863.965 287.516C883.901 265.586 865.958 229.7 838.047 229.7H778.237C760.294 229.7 742.351 237.674 730.389 251.63L674.566 323.402C670.579 329.383 660.61 325.396 660.61 319.415V273.56C660.61 247.643 640.673 227.706 614.756 227.706H564.914C538.996 227.706 519.06 247.643 519.06 273.56V534.731C519.06 560.649 538.996 580.586 564.914 580.586H614.756C640.673 580.586 660.61 560.649 660.61 534.731V490.871C660.61 482.896 670.579 480.902 674.566 486.883L728.395 558.655C740.357 572.611 758.3 580.586 776.243 580.586H836.053C865.958 582.579 883.901 546.693 863.965 524.763Z" fill="#FFB3B7"/>
<path d="M513.077 859.7C393.457 859.7 275.83 819.826 176.147 744.067C150.229 724.13 136.273 694.225 166.178 656.345C196.083 618.465 222.001 634.415 245.925 652.358C325.672 714.162 415.387 740.079 513.077 740.079C610.767 740.079 698.488 714.162 778.235 652.358C802.159 634.415 826.083 618.465 859.976 656.345C891.875 694.225 875.925 724.13 850.007 744.067C750.324 817.833 632.697 859.7 513.077 859.7Z" fill="#FFB3B7"/>
</g>
<path d="M323.679 209.7C225.989 209.7 148.236 289.447 148.236 385.143C148.236 482.833 227.983 560.586 323.679 560.586C419.375 560.586 499.122 480.839 499.122 385.143C501.116 287.453 421.369 209.7 323.679 209.7ZM323.679 452.928C285.799 452.928 255.894 423.023 255.894 385.143C255.894 347.263 285.799 317.358 323.679 317.358C361.559 317.358 391.464 347.263 391.464 385.143C391.464 423.023 361.559 452.928 323.679 452.928Z" fill="#F2FCFF"/>
<path d="M868 509.5L772.256 395.111C768.268 389.13 768.268 383.149 772.256 377.168L868.5 261.5C896 228.5 871.5 209.7 843.5 209.7H778.237C760.294 209.7 742.351 217.674 730.389 231.63L674.566 303.402C670.579 309.383 660.61 305.396 660.61 299.415V253.56C660.61 227.643 650 207.706 614.756 207.706H564.914C528.5 207.706 519.06 227.643 519.06 253.56V514.731C519.06 540.649 528 560.586 564.914 560.586H614.756C652 560.586 660.61 540.649 660.61 514.731V470.871C660.61 462.896 670.579 460.902 674.566 466.883L728.395 538.655C740.357 552.611 758.3 560.586 776.243 560.586H843.5C879 560.586 887.937 531.43 868 509.5Z" fill="#F2FCFF"/>
<path d="M513.077 839.7C393.457 839.7 275.83 799.826 176.147 724.067C150.229 704.13 136.273 674.225 166.178 636.345C196.083 598.465 222.001 614.415 245.925 632.358C325.672 694.162 415.387 720.079 513.077 720.079C610.767 720.079 698.488 694.162 778.235 632.358C802.159 614.415 826.083 598.465 859.976 636.345C891.875 674.225 875.925 704.13 850.007 724.067C750.324 797.833 632.697 839.7 513.077 839.7Z" fill="#F2FCFF"/>
</g>
<defs>
<filter id="filter0_f" x="114.236" y="193.706" width="797.478" height="699.994" filterUnits="userSpaceOnUse" color-interpolation-filters="sRGB">
<feFlood flood-opacity="0" result="BackgroundImageFix"/>
<feBlend mode="normal" in="SourceGraphic" in2="BackgroundImageFix" result="shape"/>
<feGaussianBlur stdDeviation="17" result="effect1_foregroundBlur"/>
</filter>
<radialGradient id="paint0_radial" cx="0" cy="0" r="1" gradientUnits="userSpaceOnUse" gradientTransform="translate(512 183) rotate(90) scale(898.5 1271.03)">
<stop offset="0.279762" stop-color="#FF3B57"/>
<stop offset="0.876639" stop-color="#FF5B6F"/>
</radialGradient>
</defs>
</svg>
