<svg width="1140" height="345" viewBox="0 0 1140 345" fill="none" xmlns="http://www.w3.org/2000/svg">
<mask id="mask0" mask-type="alpha" maskUnits="userSpaceOnUse" x="0" y="0" width="1144" height="530">
<path d="M0 530H1144C1144 530 1144 -116.677 736.267 18.6101C328.533 153.897 0 141.302 0 141.302V530Z" fill="#713BE3"/>
<path d="M0 530H1144C1144 530 1144 -116.677 736.267 18.6101C328.533 153.897 0 141.302 0 141.302V530Z" fill="url(#paint0_angular)"/>
</mask>
<g mask="url(#mask0)">
<path d="M-97 575H1241C1241 575 1241 -181.49 764.123 -23.2297C287.246 135.03 -97 120.296 -97 120.296V575Z" fill="#713BE3"/>
<path d="M-97 575H1241C1241 575 1241 -181.49 764.123 -23.2297C287.246 135.03 -97 120.296 -97 120.296V575Z" fill="url(#paint1_angular)"/>
<g filter="url(#filter0_b)">
<path d="M0 530H1144C1144 530 1144 -116.677 736.267 18.6101C328.533 153.897 0 141.302 0 141.302V530Z" fill="black" fill-opacity="0.13"/>
</g>
</g>
<defs>
<filter id="filter0_b" x="-169" y="-169" width="1482" height="868" filterUnits="userSpaceOnUse" color-interpolation-filters="sRGB">
<feFlood flood-opacity="0" result="BackgroundImageFix"/>
<feGaussianBlur in="BackgroundImage" stdDeviation="84.5"/>
<feComposite in2="SourceAlpha" operator="in" result="effect1_backgroundBlur"/>
<feBlend mode="normal" in="SourceGraphic" in2="effect1_backgroundBlur" result="shape"/>
</filter>
<radialGradient id="paint0_angular" cx="0" cy="0" r="1" gradientUnits="userSpaceOnUse" gradientTransform="translate(572 265.12) rotate(-90) scale(301.629 651.358)">
<stop offset="0.197917" stop-color="#390196"/>
<stop offset="0.5" stop-color="#FF22E9"/>
<stop offset="0.6875" stop-color="#713BE3"/>
<stop offset="0.988836" stop-color="#950FFF"/>
</radialGradient>
<radialGradient id="paint1_angular" cx="0" cy="0" r="1" gradientUnits="userSpaceOnUse" gradientTransform="translate(572 265.14) rotate(-90) scale(352.849 761.815)">
<stop offset="0.197917" stop-color="#390196"/>
<stop offset="0.5" stop-color="#FF22E9"/>
<stop offset="0.6875" stop-color="#713BE3"/>
<stop offset="0.988836" stop-color="#950FFF"/>
</radialGradient>
</defs>
</svg>
