<svg fill="none" height="180" viewBox="0 0 180 180" width="180" xmlns="http://www.w3.org/2000/svg" xmlns:xlink="http://www.w3.org/1999/xlink"><filter id="a" color-interpolation-filters="sRGB" filterUnits="userSpaceOnUse" height="180" width="180" x="0" y="0"><feFlood flood-opacity="0" result="BackgroundImageFix"/><feColorMatrix in="SourceAlpha" type="matrix" values="0 0 0 0 0 0 0 0 0 0 0 0 0 0 0 0 0 0 127 0"/><feOffset dy="4"/><feGaussianBlur stdDeviation="4"/><feColorMatrix type="matrix" values="0 0 0 0 0 0 0 0 0 0 0 0 0 0 0 0 0 0 0.12 0"/><feBlend in2="BackgroundImageFix" mode="normal" result="effect1_dropShadow"/><feBlend in="SourceGraphic" in2="effect1_dropShadow" mode="normal" result="shape"/></filter><filter id="b" color-interpolation-filters="sRGB" filterUnits="userSpaceOnUse" height="146.05" width="161.662" x="9.32504" y="18.0526"><feFlood flood-opacity="0" result="BackgroundImageFix"/><feBlend in="SourceGraphic" in2="BackgroundImageFix" mode="normal" result="shape"/><feGaussianBlur result="effect1_foregroundBlur" stdDeviation="11.208"/></filter><filter id="c" color-interpolation-filters="sRGB" filterUnits="userSpaceOnUse" height="60.1966" width="60.2024" x="29.7408" y="36.5847"><feFlood flood-opacity="0" result="BackgroundImageFix"/><feColorMatrix in="SourceAlpha" type="matrix" values="0 0 0 0 0 0 0 0 0 0 0 0 0 0 0 0 0 0 127 0"/><feOffset dy="1"/><feGaussianBlur stdDeviation="1"/><feColorMatrix type="matrix" values="0 0 0 0 0 0 0 0 0 0 0 0 0 0 0 0 0 0 0.16 0"/><feBlend in2="BackgroundImageFix" mode="normal" result="effect1_dropShadow"/><feBlend in="SourceGraphic" in2="effect1_dropShadow" mode="normal" result="shape"/><feColorMatrix in="SourceAlpha" result="hardAlpha" type="matrix" values="0 0 0 0 0 0 0 0 0 0 0 0 0 0 0 0 0 0 127 0"/><feOffset dy="2"/><feGaussianBlur stdDeviation="1"/><feComposite in2="hardAlpha" k2="-1" k3="1" operator="arithmetic"/><feColorMatrix type="matrix" values="0 0 0 0 1 0 0 0 0 1 0 0 0 0 1 0 0 0 0.25 0"/><feBlend in2="shape" mode="normal" result="effect2_innerShadow"/></filter><filter id="d" color-interpolation-filters="sRGB" filterUnits="userSpaceOnUse" height="60.5159" width="61.8914" x="89.1306" y="36.2654"><feFlood flood-opacity="0" result="BackgroundImageFix"/><feColorMatrix in="SourceAlpha" type="matrix" values="0 0 0 0 0 0 0 0 0 0 0 0 0 0 0 0 0 0 127 0"/><feOffset dy="1"/><feGaussianBlur stdDeviation="1"/><feColorMatrix type="matrix" values="0 0 0 0 0 0 0 0 0 0 0 0 0 0 0 0 0 0 0.16 0"/><feBlend in2="BackgroundImageFix" mode="normal" result="effect1_dropShadow"/><feBlend in="SourceGraphic" in2="effect1_dropShadow" mode="normal" result="shape"/><feColorMatrix in="SourceAlpha" result="hardAlpha" type="matrix" values="0 0 0 0 0 0 0 0 0 0 0 0 0 0 0 0 0 0 127 0"/><feOffset dy="2"/><feGaussianBlur stdDeviation="1"/><feComposite in2="hardAlpha" k2="-1" k3="1" operator="arithmetic"/><feColorMatrix type="matrix" values="0 0 0 0 1 0 0 0 0 1 0 0 0 0 1 0 0 0 0.25 0"/><feBlend in2="shape" mode="normal" result="effect2_innerShadow"/></filter><filter id="e" color-interpolation-filters="sRGB" filterUnits="userSpaceOnUse" height="40.2778" width="120.659" x="29.9119" y="101.205"><feFlood flood-opacity="0" result="BackgroundImageFix"/><feColorMatrix in="SourceAlpha" type="matrix" values="0 0 0 0 0 0 0 0 0 0 0 0 0 0 0 0 0 0 127 0"/><feOffset dy="1"/><feGaussianBlur stdDeviation="1"/><feColorMatrix type="matrix" values="0 0 0 0 0 0 0 0 0 0 0 0 0 0 0 0 0 0 0.16 0"/><feBlend in2="BackgroundImageFix" mode="normal" result="effect1_dropShadow"/><feBlend in="SourceGraphic" in2="effect1_dropShadow" mode="normal" result="shape"/><feColorMatrix in="SourceAlpha" result="hardAlpha" type="matrix" values="0 0 0 0 0 0 0 0 0 0 0 0 0 0 0 0 0 0 127 0"/><feOffset dy="2"/><feGaussianBlur stdDeviation="1"/><feComposite in2="hardAlpha" k2="-1" k3="1" operator="arithmetic"/><feColorMatrix type="matrix" values="0 0 0 0 1 0 0 0 0 1 0 0 0 0 1 0 0 0 0.25 0"/><feBlend in2="shape" mode="normal" result="effect2_innerShadow"/></filter><radialGradient id="f" cx="0" cy="0" gradientTransform="matrix(0 143.9 -203.563 0 90 33.3086)" gradientUnits="userSpaceOnUse" r="1"><stop offset=".279762" stop-color="#ff3b57"/><stop offset=".876639" stop-color="#f40023"/></radialGradient><mask id="g" height="164" maskUnits="userSpaceOnUse" width="164" x="8" y="4"><path d="m141.09 4h-102.1798c-17.0713 0-30.9102 13.8389-30.9102 30.9102v102.1798c0 17.071 13.8389 30.91 30.9102 30.91h102.1798c17.071 0 30.91-13.839 30.91-30.91v-102.1798c0-17.0713-13.839-30.9102-30.91-30.9102z" fill="#c4c4c4"/></mask><g filter="url(#a)"><g mask="url(#g)"><path d="m172 4h-164v164h164z" fill="url(#f)"/><g fill="#ffb3b7" filter="url(#b)" opacity=".4"><path d="m59.8393 40.788c-15.6457 0-28.0983 12.7719-28.0983 28.0983 0 15.6456 12.7719 28.0983 28.0983 28.0983 15.3263 0 28.0982-12.772 28.0982-28.0983.3194-15.6457-12.4526-28.0983-28.0982-28.0983zm0 38.9545c-6.0668 0-10.8562-4.7895-10.8562-10.8562 0-6.0668 4.7894-10.8562 10.8562-10.8562 6.0667 0 10.8561 4.7894 10.8561 10.8562 0 6.0667-4.7894 10.8562-10.8561 10.8562z" opacity=".4"/><path d="m146.369 88.0441-14.687-17.5614c-.639-.9579-.639-1.9158 0-2.8737l14.687-17.5615c3.193-3.5122.32-9.2596-4.15-9.2596h-9.579c-2.874 0-5.748 1.2771-7.664 3.5122l-8.94 11.4948c-.639.9579-2.235.3193-2.235-.6386v-7.3439c0-4.1508-3.193-7.3438-7.344-7.3438h-7.9825c-4.1509 0-7.3438 3.193-7.3438 7.3438v41.8282c0 4.1509 3.1929 7.3439 7.3438 7.3439h7.9825c4.151 0 7.344-3.193 7.344-7.3439v-7.0245c0-1.2773 1.596-1.5966 2.235-.6387l8.621 11.4947c1.916 2.2352 4.79 3.5124 7.663 3.5124h9.579c4.79.3192 7.663-5.4282 4.47-8.9404z" opacity=".4"/><path d="m90.1725 141.686c-19.1579 0-37.9966-6.386-53.9615-18.519-4.1509-3.193-6.3861-7.983-1.5966-14.049 4.7895-6.067 8.9404-3.512 12.772-.639 12.772 9.898 27.1404 14.049 42.7861 14.049 15.6455 0 29.6945-4.151 42.4665-14.049 3.832-2.873 7.663-5.428 13.091.639 5.109 6.066 2.555 10.856-1.596 14.049-15.965 11.814-34.804 18.519-53.9615 18.519z" opacity=".4"/></g><g filter="url(#c)"><path d="m59.8391 37.5847c-15.6456 0-28.0983 12.772-28.0983 28.0983 0 15.6457 12.772 28.0983 28.0983 28.0983s28.0983-12.772 28.0983-28.0983c.3194-15.6457-12.4526-28.0983-28.0983-28.0983zm0 38.9545c-6.0667 0-10.8562-4.7895-10.8562-10.8562s4.7895-10.8562 10.8562-10.8562 10.8562 4.7895 10.8562 10.8562-4.7895 10.8562-10.8562 10.8562z" fill="#eafaff"/></g><g filter="url(#d)"><path d="m147.016 85.5996-15.334-18.3201c-.639-.9579-.639-1.9158 0-2.8737l15.414-18.525c4.404-5.2851.48-8.2961-4.004-8.2961h-10.453c-2.873 0-5.747 1.2771-7.663 3.5123l-8.94 11.4947c-.639.9579-2.235.3193-2.235-.6385v-7.344c0-4.1508-1.7-7.3438-7.344-7.3438h-7.9826c-5.8319 0-7.3438 3.193-7.3438 7.3438v41.8282c0 4.1509 1.4318 7.3439 7.3438 7.3439h7.9826c5.965 0 7.344-3.193 7.344-7.3439v-7.0245c0-1.2772 1.596-1.5966 2.235-.6387l8.621 11.4947c1.916 2.2352 4.789 3.5124 7.663 3.5124h10.772c5.685 0 7.117-4.6695 3.924-8.1817z" fill="#eafaff"/></g><g filter="url(#e)"><path d="m90.1725 138.483c-19.1579 0-37.9966-6.386-53.9615-18.519-4.1509-3.193-6.3861-7.983-1.5966-14.049 4.7895-6.067 8.9404-3.513 12.772-.639 12.772 9.898 27.1404 14.049 42.7861 14.049 15.6455 0 29.6945-4.151 42.4665-14.049 3.832-2.874 7.663-5.428 13.091.639 5.109 6.066 2.555 10.856-1.596 14.049-15.965 11.814-34.804 18.519-53.9615 18.519z" fill="#eafaff"/></g></g></g></svg>