<?xml version="1.0" encoding="UTF-8"?>
<svg width="277px" height="44px" viewBox="0 0 277 44" version="1.1" xmlns="http://www.w3.org/2000/svg" xmlns:xlink="http://www.w3.org/1999/xlink">
    <!-- Generator: Sketch 52.6 (67491) - http://www.bohemiancoding.com/sketch -->
    <title>OK Video</title>
    <desc>Created with Sketch.</desc>
    <g id="Page-1" stroke="none" stroke-width="1" fill="none" fill-rule="evenodd">
        <path d="M22.07,43.812 C9.542,43.812 0.262,34.474 0.262,22.816 L0.262,22.7 C0.262,11.042 9.658,1.588 22.186,1.588 C34.714,1.588 43.994,10.926 43.994,22.584 L43.994,22.7 C43.994,34.358 34.598,43.812 22.07,43.812 Z M22.186,33.662 C28.334,33.662 32.452,28.674 32.452,22.816 L32.452,22.7 C32.452,16.784 28.276,11.738 22.07,11.738 C15.864,11.738 11.746,16.726 11.746,22.584 L11.746,22.7 C11.746,28.558 15.98,33.662 22.186,33.662 Z M49.794,43 L49.794,2.4 L61.046,2.4 L61.046,18.872 L75.082,2.4 L88.364,2.4 L72.994,19.8 L88.886,43 L75.43,43 L65.164,27.92 L61.046,32.444 L61.046,43 L49.794,43 Z M121.424,43.29 L105.01,2.4 L117.538,2.4 L126.76,28.094 L136.04,2.4 L148.336,2.4 L131.864,43.29 L121.424,43.29 Z M151.12,8.78 L151.12,0.66 L162.546,0.66 L162.546,8.78 L151.12,8.78 Z M151.352,43 L151.352,11.622 L162.314,11.622 L162.314,43 L151.352,43 Z M181.28,43.696 C173.798,43.696 167.36,37.49 167.36,27.456 L167.36,27.34 C167.36,17.132 173.798,10.926 181.222,10.926 C185.978,10.926 188.762,13.072 190.792,15.45 L190.792,0.66 L201.812,0.66 L201.812,43 L190.792,43 L190.792,38.824 C188.646,41.434 185.978,43.696 181.28,43.696 Z M184.586,34.474 C188.182,34.474 191.024,31.516 191.024,27.34 L191.024,27.224 C191.024,23.106 188.182,20.09 184.586,20.09 C181.048,20.09 178.148,23.048 178.148,27.224 L178.148,27.34 C178.148,31.516 181.048,34.474 184.586,34.474 Z M223.33,43.754 C213.47,43.754 206.51,37.142 206.51,27.456 L206.51,27.34 C206.51,18.176 213.064,10.926 222.344,10.926 C233.132,10.926 238.12,18.872 238.12,28.094 C238.12,28.79 238.12,29.602 238.062,30.356 L217.066,30.356 C217.936,33.778 220.43,35.518 223.852,35.518 C226.52,35.518 228.55,34.532 230.812,32.328 L236.902,37.374 C233.886,41.202 229.536,43.754 223.33,43.754 Z M216.892,24.73 L227.854,24.73 C227.448,21.25 225.36,19.046 222.344,19.046 C219.444,19.046 217.472,21.25 216.892,24.73 Z M258.884,43.754 C248.908,43.754 241.658,36.388 241.658,27.456 L241.658,27.34 C241.658,18.408 248.966,10.926 259,10.926 C269.034,10.926 276.284,18.292 276.284,27.224 L276.284,27.34 C276.284,36.272 268.976,43.754 258.884,43.754 Z M259,34.416 C263.002,34.416 265.612,31.226 265.612,27.456 L265.612,27.34 C265.612,23.454 262.77,20.206 258.884,20.206 C254.882,20.206 252.33,23.396 252.33,27.224 L252.33,27.34 C252.33,31.168 255.114,34.416 259,34.416 Z" id="OK-Video" fill="#FFFFFF"></path>
    </g>
</svg>