<?xml version="1.0" encoding="UTF-8"?>
<svg width="282px" height="41px" viewBox="0 0 282 41" version="1.1" xmlns="http://www.w3.org/2000/svg" xmlns:xlink="http://www.w3.org/1999/xlink">
    <!-- Generator: Sketch 42 (36781) - http://www.bohemiancoding.com/sketch -->
    <title>OK VIDEO</title>
    <desc>Created with Sketch.</desc>
    <defs></defs>
    <g id="website" stroke="none" stroke-width="1" fill="none" fill-rule="evenodd">
        <g id="Mobile-Copy" transform="translate(-179.000000, -380.000000)" fill="#FFFFFF">
            <path d="M200.1,420.77 C188.22,420.77 179.42,411.915 179.42,400.86 L179.42,400.75 C179.42,389.695 188.33,380.73 200.21,380.73 C212.09,380.73 220.89,389.585 220.89,400.64 L220.89,400.75 C220.89,411.805 211.98,420.77 200.1,420.77 Z M200.21,411.145 C206.095,411.145 210,406.415 210,400.86 L210,400.75 C210,395.195 205.985,390.355 200.1,390.355 C194.27,390.355 190.365,395.085 190.365,400.64 L190.365,400.75 C190.365,406.305 194.38,411.145 200.21,411.145 Z M226.445,420 L237.115,420 L237.115,410.045 L241.02,405.7 L250.7,420 L263.515,420 L248.445,398.055 L263.02,381.5 L250.37,381.5 L237.115,397.12 L237.115,381.5 L226.445,381.5 L226.445,420 Z M294.37,420.275 L304.27,420.275 L319.89,381.5 L308.175,381.5 L299.43,405.865 L290.685,381.5 L278.75,381.5 L294.37,420.275 Z M323.85,420 L334.575,420 L334.575,381.5 L323.85,381.5 L323.85,420 Z M341.615,420 L341.615,381.5 L356.465,381.5 C370.215,381.5 378.19,389.42 378.19,400.53 L378.19,400.64 C378.19,411.75 370.105,420 356.245,420 L341.615,420 Z M352.285,410.54 L356.63,410.54 C363.01,410.54 367.245,407.02 367.245,400.805 L367.245,400.695 C367.245,394.535 363.01,390.96 356.63,390.96 L352.285,390.96 L352.285,410.54 Z M383.69,420 L414.93,420 L414.93,410.925 L394.25,410.925 L394.25,404.82 L412.73,404.82 L412.73,396.405 L394.25,396.405 L394.25,390.575 L414.655,390.575 L414.655,381.5 L383.69,381.5 L383.69,420 Z M439.735,420.77 C427.855,420.77 419.055,411.915 419.055,400.86 L419.055,400.75 C419.055,389.695 427.965,380.73 439.845,380.73 C451.725,380.73 460.525,389.585 460.525,400.64 L460.525,400.75 C460.525,411.805 451.615,420.77 439.735,420.77 Z M439.845,411.145 C445.73,411.145 449.635,406.415 449.635,400.86 L449.635,400.75 C449.635,395.195 445.62,390.355 439.735,390.355 C433.905,390.355 430,395.085 430,400.64 L430,400.75 C430,406.305 434.015,411.145 439.845,411.145 Z" id="OK-VIDEO"></path>
        </g>
    </g>
</svg>