<?xml version="1.0" encoding="UTF-8"?>
<svg width="266px" height="41px" viewBox="0 0 266 41" version="1.1" xmlns="http://www.w3.org/2000/svg" xmlns:xlink="http://www.w3.org/1999/xlink">
    <!-- Generator: Sketch 42 (36781) - http://www.bohemiancoding.com/sketch -->
    <title>OKVIDEO</title>
    <desc>Created with Sketch.</desc>
    <defs></defs>
    <g id="website" stroke="none" stroke-width="1" fill="none" fill-rule="evenodd">
        <g id="Mobile-Copy" transform="translate(-187.000000, -380.000000)" fill="#FFFFFF">
            <path d="M207.7175,420.77 C195.8375,420.77 187.0375,411.915 187.0375,400.86 L187.0375,400.75 C187.0375,389.695 195.9475,380.73 207.8275,380.73 C219.7075,380.73 228.5075,389.585 228.5075,400.64 L228.5075,400.75 C228.5075,411.805 219.5975,420.77 207.7175,420.77 Z M207.8275,411.145 C213.7125,411.145 217.6175,406.415 217.6175,400.86 L217.6175,400.75 C217.6175,395.195 213.6025,390.355 207.7175,390.355 C201.8875,390.355 197.9825,395.085 197.9825,400.64 L197.9825,400.75 C197.9825,406.305 201.9975,411.145 207.8275,411.145 Z M234.0625,420 L244.7325,420 L244.7325,410.045 L248.6375,405.7 L258.3175,420 L271.1325,420 L256.0625,398.055 L270.6375,381.5 L257.9875,381.5 L244.7325,397.12 L244.7325,381.5 L234.0625,381.5 L234.0625,420 Z M286.7525,420.275 L296.6525,420.275 L312.2725,381.5 L300.5575,381.5 L291.8125,405.865 L283.0675,381.5 L271.1325,381.5 L286.7525,420.275 Z M316.2325,420 L326.9575,420 L326.9575,381.5 L316.2325,381.5 L316.2325,420 Z M333.9975,420 L333.9975,381.5 L348.8475,381.5 C362.5975,381.5 370.5725,389.42 370.5725,400.53 L370.5725,400.64 C370.5725,411.75 362.4875,420 348.6275,420 L333.9975,420 Z M344.6675,410.54 L349.0125,410.54 C355.3925,410.54 359.6275,407.02 359.6275,400.805 L359.6275,400.695 C359.6275,394.535 355.3925,390.96 349.0125,390.96 L344.6675,390.96 L344.6675,410.54 Z M376.0725,420 L407.3125,420 L407.3125,410.925 L386.6325,410.925 L386.6325,404.82 L405.1125,404.82 L405.1125,396.405 L386.6325,396.405 L386.6325,390.575 L407.0375,390.575 L407.0375,381.5 L376.0725,381.5 L376.0725,420 Z M432.1175,420.77 C420.2375,420.77 411.4375,411.915 411.4375,400.86 L411.4375,400.75 C411.4375,389.695 420.3475,380.73 432.2275,380.73 C444.1075,380.73 452.9075,389.585 452.9075,400.64 L452.9075,400.75 C452.9075,411.805 443.9975,420.77 432.1175,420.77 Z M432.2275,411.145 C438.1125,411.145 442.0175,406.415 442.0175,400.86 L442.0175,400.75 C442.0175,395.195 438.0025,390.355 432.1175,390.355 C426.2875,390.355 422.3825,395.085 422.3825,400.64 L422.3825,400.75 C422.3825,406.305 426.3975,411.145 432.2275,411.145 Z" id="OKVIDEO"></path>
        </g>
    </g>
</svg>