<?xml version="1.0" encoding="UTF-8"?>
<svg width="50px" height="41px" viewBox="0 0 50 41" version="1.1" xmlns="http://www.w3.org/2000/svg" xmlns:xlink="http://www.w3.org/1999/xlink">
    <!-- Generator: Sketch 42 (36781) - http://www.bohemiancoding.com/sketch -->
    <title>Twitter_Logo_White_On_Blue</title>
    <desc>Created with Sketch.</desc>
    <defs></defs>
    <g id="website" stroke="none" stroke-width="1" fill="none" fill-rule="evenodd">
        <g id="Mobile-Copy" transform="translate(-295.000000, -1809.000000)" fill="#FFFFFF">
            <g id="Twitter_Logo_White_On_Blue" transform="translate(295.000000, 1809.000000)">
                <path d="M15.7246,40.6356 C34.5934,40.6356 44.9118,25.0034 44.9118,11.4484 C44.9118,11.0042 44.9028,10.562 44.8824,10.1222 C46.8852,8.6744 48.6264,6.8678 50,4.8108 C48.1618,5.6272 46.1838,6.1776 44.1088,6.4256 C46.2268,5.156 47.8528,3.1464 48.6196,0.7512 C46.6372,1.9262 44.4426,2.7808 42.106,3.241 C40.2342,1.2472 37.5682,0 34.6182,0 C28.9526,0 24.3584,4.5942 24.3584,10.2576 C24.3584,11.0628 24.4486,11.8454 24.6244,12.5966 C16.099,12.168 8.539,8.0858 3.48,1.8788 C2.5982,3.3944 2.0908,5.156 2.0908,7.0346 C2.0908,10.5938 3.9018,13.7356 6.6556,15.5736 C4.9732,15.5218 3.3922,15.0594 2.0096,14.2902 C2.0072,14.333 2.0072,14.376 2.0072,14.421 C2.0072,19.3898 5.5438,23.5374 10.2372,24.478 C9.3758,24.7124 8.469,24.8388 7.533,24.8388 C6.8722,24.8388 6.2294,24.7734 5.6046,24.6538 C6.9106,28.7294 10.6974,31.6952 15.1878,31.7788 C11.6762,34.5302 7.2534,36.1698 2.4472,36.1698 C1.6194,36.1698 0.803,36.1226 0,36.0278 C4.5402,38.9372 9.9306,40.6356 15.7246,40.6356" id="Fill-3"></path>
            </g>
        </g>
    </g>
</svg>